<svg id="Layer_1" data-name="Layer 1" xmlns="http://www.w3.org/2000/svg" viewBox="0 0 299.18 298.42"><title>phonom</title><path d="M80,172" transform="translate(-8.54 -10.52)"/><path d="M69,209" transform="translate(-8.54 -10.52)"/><circle cx="138.98" cy="98.99" r="90.51" style="stroke:#000;stroke-miterlimit:10;stroke-width:0.75px"/><circle cx="137.48" cy="100.49" r="98.49" style="fill:#492722;stroke:#000;stroke-miterlimit:10;stroke-width:4px"/><circle cx="137.48" cy="100.49" r="90.51" style="stroke:#000;stroke-miterlimit:10;stroke-width:0.75px"/><polyline points="204.46 124.48 181.46 175.48 101.46 175.48 77.46 124.48" style="fill:#8e7472;stroke:#000;stroke-miterlimit:10;stroke-width:4px"/><ellipse cx="149.52" cy="135.56" rx="3.56" ry="62" transform="matrix(0.01, -1, 1, 0.01, 4.51, 273.73)" style="fill:#4c1d09;stroke:#aa8585;stroke-miterlimit:10;stroke-width:0.5px"/><path d="M125.92,134.33" transform="translate(-8.54 -10.52)" style="fill:#755055;stroke:#8c5c3b;stroke-miterlimit:10;stroke-width:6px"/><path d="M67,93.37" transform="translate(-8.54 -10.52)" style="fill:#755055;stroke:#8c5c3b;stroke-miterlimit:10;stroke-width:6px"/><path d="M95,148" transform="translate(-8.54 -10.52)" style="fill:#935f5f"/><text transform="translate(0.8 64.71)" style="font-size:40px;fill:red;stroke:#fff;stroke-miterlimit:10;stroke-width:0.25px;font-family:HandOfSeanDemo, Hand Of Sean (Demo);letter-spacing:0.11099853515625em">Pho<tspan x="82.54" y="0" style="fill:#006837;letter-spacing:0.1110107421875em">Nomenal</tspan></text><path d="M126,257a61.81,61.81,0,0,1-71,51" transform="translate(-8.54 -10.52)" style="fill:none;stroke:#fff;stroke-miterlimit:10;stroke-width:0.25px"/><path d="M147,99c0,19.9,1.79,36,4,36" transform="translate(-8.54 -10.52)" style="fill:#ddc0ac;stroke:#c7b299;stroke-miterlimit:10;stroke-width:2px"/><path d="M148.7,107.88l-79.39.39c-1.82,0-3.31-.66-3.31-1.49h0c0-.82,1.48-1.5,3.3-1.51l79.38-.39a5.28,5.28,0,0,1,3.26,1.42l.06.06h0A5.39,5.39,0,0,1,148.7,107.88Z" transform="translate(-8.54 -10.52)" style="fill:#4c2002;stroke:#fff;stroke-miterlimit:10;stroke-width:0.25px"/><path d="M144,99c0,19.9,1.79,36,4,36" transform="translate(-8.54 -10.52)" style="fill:#ddc0ac;stroke:#c7b299;stroke-miterlimit:10;stroke-width:2px"/><path d="M141,102c0,17.69,1.79,32,4,32" transform="translate(-8.54 -10.52)" style="fill:#ddc0ac;stroke:#c7b299;stroke-miterlimit:10;stroke-width:2px"/><path d="M150.73,108.53,99.16,76.32c-1.18-.74-1.79-1.91-1.35-2.61h0c.44-.7,1.76-.67,2.94.07L152.32,106a3.83,3.83,0,0,1,1.35,2.55v.07h0A3.89,3.89,0,0,1,150.73,108.53Z" transform="translate(-8.54 -10.52)" style="fill:#4c2002;stroke:#fff;stroke-miterlimit:10;stroke-width:0.25px"/></svg>